<svg width="82" height="90" viewBox="0 0 82 90" fill="none" xmlns="http://www.w3.org/2000/svg"><path d="M47.49 29.796c.548 0 1.06.174 1.538.488l1.743 1.112 1.606-.486 2.356-2.889-5.021-5.112c-1.983-2.019-4.818-3.132-7.929-3.132h-.069c-1.452-1.077-3.54-1.707-5.706-1.707-.907.007-1.812.111-2.698.312.37 1.091 1.14 2.363 1.734 3.255-4.897 2.876-8.267 8.78-8.267 15.569 0 1.356.137 2.052.137 2.052s1.612-1.67 3.73-1.67c0 3.341-2.081 6.577-2.081 6.577 5.296 0 14.762 2.54 18.145 4.871 0-1.6-3.383-5.602-6.63-7.756 0 0 9.534 4.21 10.97 11.588 0 0 .717-1.531.717-4.037 0-11.136-14.113-10.822-14.216-20.079-.034-2.471.957-4.002.957-4.002-.22.947-.334 1.916-.342 2.889 0 7.133 7.347 7.446 11.96 11.935l.991-5.463-1.914.628-1.4-.418c-1.538-.453-2.427-1.357-2.427-2.505s.889-2.019 2.119-2.019l-.003-.001zm-5.811-5.697s1.162-.14 1.982-.14c1.709 0 3.349.593 4.34 1.497l-1.026 1.253c-.888-1.043-3.759-2.47-5.296-2.61M26.798 67.447l-1.488-2.165c2.087-.845 3.343-2.547 3.343-4.62 0-2.743-2.209-4.63-5.425-4.63h-7.322l.243.38c.525.82.805 1.582.805 2.288v9.91c0 .706-.28 1.469-.805 2.289l-.243.38h4.192V58.893h2.938c1.442 0 2.412.82 2.412 2.02 0 1.41-1.16 2.306-4.435 3.125l3.593 5.642c.898 1.41 2.246 2.172 3.855 2.172 1.48 0 2.078-.628 2.078-.628s-1.498-.496-3.744-3.774M50.561 71.279l-.243-.305c-.525-.648-.749-1.296-.805-1.868L48.371 58.7c-.074-.705.17-1.45.618-2.288l.206-.38h-4.417l-3.855 8.658-3.855-8.658h-4.416l.205.382c.45.837.692 1.58.617 2.287l-1.141 10.406c-.055.572-.28 1.22-.804 1.868l-.244.305h4.061l.91-9.881 4.667 10.45 4.666-10.451.91 9.88h4.062zM63.055 63.182c1.09-.635 1.695-1.679 1.695-3.035 0-2.458-1.983-4.116-4.922-4.116h-7.336l.244.38c.524.801.804 1.583.804 2.289v9.91c0 .706-.28 1.487-.804 2.288l-.244.381h7.954c3.014 0 5.166-1.868 5.166-4.516 0-1.724-.91-2.962-2.557-3.58v-.001zm-3.562-4.424c1.291 0 2.192.725 2.192 1.773 0 1.047-.898 1.771-2.192 1.771h-2.809v-3.547l2.809.003zm.658 9.796h-3.467v-3.738h3.463c1.347 0 2.227.725 2.227 1.868 0 1.143-.877 1.867-2.227 1.867" fill="#fff"/></svg>