<svg width="260" height="27" viewBox="0 0 260 27" fill="none" xmlns="http://www.w3.org/2000/svg"><path d="M7.845.5h1.41L5.34 7.31V11H4.11V7.28L.21.5h1.41l3.105 5.475L7.845.5zm5.01 10.65c-.75 0-1.445-.18-2.085-.54-.63-.37-1.13-.87-1.5-1.5a4.014 4.014 0 01-.555-2.07c0-.74.185-1.425.555-2.055a4.23 4.23 0 011.515-1.515c.63-.38 1.32-.57 2.07-.57.75 0 1.44.19 2.07.57a4 4 0 011.485 1.515c.37.63.555 1.315.555 2.055 0 .76-.185 1.455-.555 2.085-.37.62-.87 1.115-1.5 1.485-.62.36-1.305.54-2.055.54zm0-1.155c.53 0 1.015-.13 1.455-.39.45-.26.805-.615 1.065-1.065.27-.45.405-.955.405-1.515 0-.55-.135-1.05-.405-1.5-.26-.46-.615-.82-1.065-1.08-.44-.26-.925-.39-1.455-.39-.51 0-.995.13-1.455.39-.45.26-.81.62-1.08 1.08-.27.45-.405.95-.405 1.5 0 .56.135 1.07.405 1.53.27.45.63.805 1.08 1.065.45.25.935.375 1.455.375zm8.976 1.155c-.67 0-1.28-.145-1.83-.435-.55-.3-.986-.71-1.306-1.23A3.47 3.47 0 0118.23 7.7V3.05h1.2v4.74c0 .68.226 1.23.675 1.65.45.41 1.026.615 1.726.615.69 0 1.26-.205 1.71-.615.45-.42.674-.965.674-1.635V3.05h1.2v4.665a3.358 3.358 0 01-1.77 3c-.55.29-1.154.435-1.814.435zm5.54-.135V3.05h.99l.21 1.245c.23-.31.58-.615 1.05-.915.48-.31 1.056-.465 1.726-.465.59 0 1.085.08 1.485.24l-.12 1.215c-.33-.17-.745-.255-1.245-.255-.12 0-.31.01-.57.03-.51.03-.965.185-1.365.465s-.72.615-.96 1.005v5.4h-1.2zm15.103.135a4.229 4.229 0 01-1.575-.33c-.5-.22-.935-.52-1.305-.9-.38-.38-.68-.825-.9-1.335a4.137 4.137 0 01-.315-1.59c0-.54.11-1.065.33-1.575.23-.52.54-.97.93-1.35.37-.36.8-.64 1.29-.84.49-.21 1.005-.32 1.545-.33.89 0 1.66.215 2.31.645V4.7c-.63-.47-1.3-.705-2.01-.705-.43 0-.84.075-1.23.225-.39.15-.735.37-1.035.66-.29.27-.52.59-.69.96-.16.36-.24.745-.24 1.155 0 .4.075.785.225 1.155.16.36.38.68.66.96.29.29.63.52 1.02.69.4.16.825.24 1.275.24.72 0 1.395-.235 2.025-.705v1.14c-.63.45-1.4.675-2.31.675zm7.618 0c-.75 0-1.445-.18-2.085-.54-.63-.37-1.13-.87-1.5-1.5a4.014 4.014 0 01-.555-2.07c0-.74.185-1.425.555-2.055a4.23 4.23 0 011.515-1.515c.63-.38 1.32-.57 2.07-.57.75 0 1.44.19 2.07.57a4 4 0 011.485 1.515c.37.63.555 1.315.555 2.055 0 .76-.185 1.455-.555 2.085-.37.62-.87 1.115-1.5 1.485-.62.36-1.305.54-2.055.54zm0-1.155c.53 0 1.015-.13 1.455-.39.45-.26.805-.615 1.065-1.065.27-.45.405-.955.405-1.515 0-.55-.135-1.05-.405-1.5-.26-.46-.615-.82-1.065-1.08-.44-.26-.925-.39-1.455-.39-.51 0-.995.13-1.455.39-.45.26-.81.62-1.08 1.08-.27.45-.405.95-.405 1.5 0 .56.135 1.07.405 1.53.27.45.63.805 1.08 1.065.45.25.935.375 1.455.375zM60.95 6.77h-5.175V5.66h5.175v1.11zm1.929 6.81V3.05h.915l.225.915c.27-.26.65-.5 1.14-.72.49-.23 1.03-.345 1.62-.345.79 0 1.495.185 2.115.555.62.37 1.1.87 1.44 1.5.35.62.525 1.3.525 2.04 0 .76-.17 1.46-.51 2.1-.33.63-.795 1.13-1.395 1.5a3.78 3.78 0 01-2.025.555c-.74 0-1.345-.135-1.815-.405-.46-.27-.805-.53-1.035-.78v3.615h-1.2zm3.855-3.51c.56 0 1.06-.135 1.5-.405.44-.28.785-.65 1.035-1.11.25-.47.375-.99.375-1.56 0-.55-.125-1.05-.375-1.5A2.726 2.726 0 0068.234 4.4c-.44-.28-.955-.43-1.545-.45-.41-.01-.8.05-1.17.18-.36.13-.665.285-.915.465-.24.18-.415.34-.525.48V8.72c.02.09.14.245.36.465.22.22.525.425.915.615.4.18.86.27 1.38.27zm6.386-8.31a.805.805 0 01-.57-.225.805.805 0 01-.225-.57c0-.22.075-.405.225-.555.16-.15.35-.225.57-.225.21 0 .395.08.555.24.16.15.24.33.24.54 0 .22-.08.41-.24.57a.787.787 0 01-.555.225zm.615 9.24h-1.2V3.05h1.2V11zm3.294 0h-1.2V.245h1.2V11zm5.729.15c-.75 0-1.445-.18-2.085-.54-.63-.37-1.13-.87-1.5-1.5a4.014 4.014 0 01-.555-2.07c0-.74.185-1.425.555-2.055a4.23 4.23 0 011.515-1.515c.63-.38 1.32-.57 2.07-.57.75 0 1.44.19 2.07.57a4 4 0 011.485 1.515c.37.63.555 1.315.555 2.055 0 .76-.185 1.455-.555 2.085-.37.62-.87 1.115-1.5 1.485-.62.36-1.305.54-2.055.54zm0-1.155c.53 0 1.015-.13 1.455-.39.45-.26.805-.615 1.065-1.065.27-.45.405-.955.405-1.515 0-.55-.135-1.05-.405-1.5-.26-.46-.615-.82-1.065-1.08-.44-.26-.925-.39-1.455-.39-.51 0-.995.13-1.455.39-.45.26-.81.62-1.08 1.08-.27.45-.405.95-.405 1.5 0 .56.135 1.07.405 1.53.27.45.63.805 1.08 1.065.45.25.935.375 1.455.375zm8.122 1.11c-.23-.03-.45-.1-.66-.21-.42-.22-.71-.555-.87-1.005-.09-.26-.135-.6-.135-1.02V4.115H87.7V3.05h1.515V.5h1.2v2.55h2.325l-.33 1.065h-1.995V8.57c0 .42.03.71.09.87.1.22.25.38.45.48.2.09.41.135.63.135.21 0 .47-.035.78-.105.31-.07.555-.145.735-.225v1.14a4.81 4.81 0 01-1.635.285c-.21 0-.405-.015-.585-.045zM99.574 11V4.7h-1.05V3.635h1.05v-1.05c0-.57.145-1.03.435-1.38.29-.36.655-.605 1.095-.735.3-.14.655-.21 1.065-.21.43 0 .805.07 1.125.21v1.125a2.31 2.31 0 00-1.02-.225c-.24 0-.45.035-.63.105-.26.1-.47.255-.63.465-.16.21-.24.48-.24.81v.885h2.205l-.33 1.065h-1.875V11h-1.2zm8.335.15c-.75 0-1.445-.18-2.085-.54-.63-.37-1.13-.87-1.5-1.5a4.014 4.014 0 01-.555-2.07c0-.74.185-1.425.555-2.055a4.23 4.23 0 011.515-1.515c.63-.38 1.32-.57 2.07-.57.75 0 1.44.19 2.07.57a4 4 0 011.485 1.515c.37.63.555 1.315.555 2.055 0 .76-.185 1.455-.555 2.085-.37.62-.87 1.115-1.5 1.485-.62.36-1.305.54-2.055.54zm0-1.155c.53 0 1.015-.13 1.455-.39.45-.26.805-.615 1.065-1.065.27-.45.405-.955.405-1.515 0-.55-.135-1.05-.405-1.5-.26-.46-.615-.82-1.065-1.08-.44-.26-.925-.39-1.455-.39-.51 0-.995.13-1.455.39-.45.26-.81.62-1.08 1.08-.27.45-.405.95-.405 1.5 0 .56.135 1.07.405 1.53.27.45.63.805 1.08 1.065.45.25.935.375 1.455.375zm5.64 1.02V3.05h.99l.21 1.245c.23-.31.58-.615 1.05-.915.48-.31 1.055-.465 1.725-.465.59 0 1.085.08 1.485.24l-.12 1.215c-.33-.17-.745-.255-1.245-.255-.12 0-.31.01-.57.03-.51.03-.965.185-1.365.465s-.72.615-.96 1.005v5.4h-1.2z" fill="#fff"/><path d="M4.14 26.165c-1.21 0-2.355-.33-3.435-.99v-1.26c.47.36 1.005.645 1.605.855.6.21 1.2.315 1.8.315.85 0 1.54-.14 2.07-.42.54-.29.81-.74.81-1.35 0-.37-.125-.68-.375-.93-.24-.26-.54-.47-.9-.63-.35-.16-.845-.35-1.485-.57a22.17 22.17 0 01-1.8-.705 3.599 3.599 0 01-1.155-.885C.965 19.225.81 18.76.81 18.2c0-.59.16-1.1.48-1.53.32-.43.755-.76 1.305-.99.56-.23 1.19-.345 1.89-.345.62 0 1.185.07 1.695.21.52.14 1.015.34 1.485.6v1.23a5.728 5.728 0 00-1.425-.705 4.915 4.915 0 00-1.62-.255c-.71 0-1.32.135-1.83.405-.5.26-.75.675-.75 1.245 0 .35.12.65.36.9a3 3 0 00.885.6c.36.16.845.345 1.455.555.76.27 1.365.515 1.815.735.46.21.85.505 1.17.885.33.38.495.86.495 1.44 0 .94-.38 1.675-1.14 2.205-.75.52-1.73.78-2.94.78zm9.34-.015c-.67 0-1.28-.145-1.83-.435-.55-.3-.984-.71-1.304-1.23A3.47 3.47 0 019.88 22.7v-4.65h1.2v4.74c0 .68.225 1.23.675 1.65.45.41 1.025.615 1.725.615.69 0 1.26-.205 1.71-.615.45-.42.675-.965.675-1.635V18.05h1.2v4.665a3.358 3.358 0 01-1.77 3c-.55.29-1.155.435-1.815.435zm8.002 0c-.58 0-1.115-.065-1.605-.195a5.76 5.76 0 01-1.245-.51l.015-1.14c.29.2.69.385 1.2.555.51.16 1.035.24 1.575.24.66 0 1.19-.105 1.59-.315.2-.1.355-.235.465-.405.11-.17.165-.36.165-.57 0-.32-.135-.58-.405-.78-.18-.13-.385-.23-.615-.3-.23-.08-.6-.185-1.11-.315-.6-.16-1.07-.305-1.41-.435a2.45 2.45 0 01-.87-.555c-.36-.33-.54-.77-.54-1.32.01-.67.29-1.2.84-1.59.54-.39 1.295-.595 2.265-.615 1.06 0 1.94.175 2.64.525l-.015 1.14c-.28-.16-.64-.3-1.08-.42-.43-.12-.89-.18-1.38-.18-.64 0-1.155.115-1.545.345-.32.19-.485.445-.495.765 0 .26.105.48.315.66.16.16.37.29.63.39.26.09.645.2 1.155.33.53.14.95.265 1.26.375.31.11.575.25.795.42.53.36.795.88.795 1.56 0 .41-.1.775-.3 1.095-.2.31-.48.56-.84.75-.57.33-1.32.495-2.25.495zm7.684-.045c-.23-.03-.45-.1-.66-.21-.42-.22-.71-.555-.87-1.005-.09-.26-.135-.6-.135-1.02v-4.755h-1.515V18.05H27.5V15.5h1.2v2.55h2.325l-.33 1.065H28.7v4.455c0 .42.03.71.09.87.1.22.25.38.45.48.2.09.41.135.63.135.21 0 .47-.035.78-.105.31-.07.555-.145.735-.225v1.14a4.81 4.81 0 01-1.635.285c-.21 0-.405-.015-.585-.045zm6.233.03c-.1.01-.255.015-.465.015-.73 0-1.325-.175-1.785-.525-.46-.35-.69-.9-.69-1.65 0-.72.285-1.285.855-1.695.57-.42 1.375-.715 2.415-.885.69-.11 1.225-.205 1.605-.285.39-.08.585-.16.585-.24v-.165c0-1.14-.66-1.71-1.98-1.71-.49 0-.995.065-1.515.195-.51.13-.96.31-1.35.54v-1.095c.39-.23.86-.41 1.41-.54.56-.13 1.035-.195 1.425-.195 2.14 0 3.21.95 3.21 2.85l.015 5.25h-.915l-.195-.63c-.39.19-.82.355-1.29.495-.46.14-.905.23-1.335.27zm.375-.99c.38-.05.82-.17 1.32-.36.5-.2.775-.335.825-.405v-2.565c-.15.08-.5.17-1.05.27-.54.09-.86.145-.96.165-.78.13-1.355.335-1.725.615-.36.27-.54.62-.54 1.05 0 .43.13.755.39.975.27.21.64.315 1.11.315.12 0 .33-.02.63-.06zm5.984-8.385a.805.805 0 01-.57-.225.805.805 0 01-.225-.57c0-.22.075-.405.225-.555.16-.15.35-.225.57-.225.21 0 .395.08.555.24.16.15.24.33.24.54 0 .22-.08.41-.24.57a.787.787 0 01-.555.225zm.615 9.24h-1.2v-7.95h1.2V26zm2.035 0v-7.95h.975l.255 1.245.315-.33c.2-.2.47-.4.81-.6a3.631 3.631 0 011.755-.465c.92 0 1.655.25 2.205.75.3.27.525.6.675.99.16.38.24.8.24 1.26V26h-1.2v-4.815c0-.75-.215-1.32-.645-1.71-.37-.34-.9-.51-1.59-.51-.54 0-1.04.14-1.5.42-.24.15-.455.32-.645.51s-.34.375-.45.555V26h-1.2zm11.513.135c-.1.01-.255.015-.465.015-.73 0-1.325-.175-1.785-.525-.46-.35-.69-.9-.69-1.65 0-.72.285-1.285.855-1.695.57-.42 1.375-.715 2.415-.885.69-.11 1.225-.205 1.605-.285.39-.08.585-.16.585-.24v-.165c0-1.14-.66-1.71-1.98-1.71-.49 0-.995.065-1.515.195-.51.13-.96.31-1.35.54v-1.095c.39-.23.86-.41 1.41-.54.56-.13 1.035-.195 1.425-.195 2.14 0 3.21.95 3.21 2.85l.015 5.25h-.915l-.195-.63c-.39.19-.82.355-1.29.495-.46.14-.905.23-1.335.27zm.375-.99c.38-.05.82-.17 1.32-.36.5-.2.775-.335.825-.405v-2.565c-.15.08-.5.17-1.05.27-.54.09-.86.145-.96.165-.78.13-1.355.335-1.725.615-.36.27-.54.62-.54 1.05 0 .43.13.755.39.975.27.21.64.315 1.11.315.12 0 .33-.02.63-.06zm9.15 1.005c-.59 0-1.13-.11-1.62-.33-.49-.23-.87-.48-1.14-.75l-.194.93h-.945V15.245h1.2v3.9c.16-.16.32-.305.48-.435.16-.14.385-.28.675-.42.5-.26 1.08-.39 1.74-.39.75 0 1.42.185 2.01.555.59.37 1.05.87 1.38 1.5.33.62.495 1.305.495 2.055 0 .78-.175 1.485-.525 2.115a3.74 3.74 0 01-1.44 1.485c-.62.36-1.325.54-2.115.54zm-.09-1.05c.89-.04 1.606-.34 2.146-.9.54-.57.81-1.295.81-2.175 0-.55-.12-1.06-.36-1.53s-.58-.84-1.02-1.11a2.66 2.66 0 00-1.485-.42c-.53 0-1.035.115-1.515.345-.33.17-.605.37-.825.6-.21.22-.33.375-.36.465v3.57c.09.15.26.32.51.51.26.18.57.335.93.465.37.13.76.19 1.17.18zm6.531.9h-1.2V15.245h1.2V26zm6.059.15c-.85 0-1.615-.18-2.295-.54a4.26 4.26 0 01-1.605-1.485c-.38-.63-.57-1.32-.57-2.07 0-.77.18-1.47.54-2.1a4 4 0 011.5-1.5c.64-.37 1.35-.555 2.13-.555.78 0 1.47.18 2.07.54.6.36 1.065.845 1.395 1.455.34.6.51 1.25.51 1.95 0 .27-.005.455-.015.555h-6.9c.01.48.15.92.42 1.32.27.39.635.705 1.095.945.47.24.99.37 1.56.39.63.02 1.21-.035 1.74-.165.54-.13 1-.315 1.38-.555v1.08c-.85.49-1.835.735-2.955.735zm2.475-4.605c-.02-.46-.15-.89-.39-1.29-.23-.4-.555-.715-.975-.945-.42-.24-.9-.36-1.44-.36-.52 0-1 .12-1.44.36-.43.24-.775.56-1.035.96-.25.39-.39.815-.42 1.275h5.7zM94.984 15.5v1.17h-5.985v3.435h5.34l-.33 1.14h-5.01V26h-1.23V15.5h7.215zm2.204 1.26a.805.805 0 01-.57-.225.805.805 0 01-.225-.57c0-.22.075-.405.225-.555.16-.15.35-.225.57-.225.21 0 .394.08.555.24.16.15.24.33.24.54 0 .22-.08.41-.24.57a.787.787 0 01-.555.225zm.614 9.24h-1.2v-7.95h1.2V26zm2.036 0v-7.95h.975l.255 1.245.315-.33c.2-.2.47-.4.81-.6a3.631 3.631 0 011.755-.465c.92 0 1.655.25 2.205.75.3.27.525.6.675.99.16.38.24.8.24 1.26V26h-1.2v-4.815c0-.75-.215-1.32-.645-1.71-.37-.34-.9-.51-1.59-.51-.54 0-1.04.14-1.5.42-.24.15-.455.32-.645.51s-.34.375-.45.555V26h-1.2zm11.513.135c-.1.01-.255.015-.465.015-.73 0-1.325-.175-1.785-.525-.46-.35-.69-.9-.69-1.65 0-.72.285-1.285.855-1.695.57-.42 1.375-.715 2.415-.885.69-.11 1.225-.205 1.605-.285.39-.08.585-.16.585-.24v-.165c0-1.14-.66-1.71-1.98-1.71-.49 0-.995.065-1.515.195-.51.13-.96.31-1.35.54v-1.095c.39-.23.86-.41 1.41-.54.56-.13 1.035-.195 1.425-.195 2.14 0 3.21.95 3.21 2.85l.015 5.25h-.915l-.195-.63c-.39.19-.82.355-1.29.495-.46.14-.905.23-1.335.27zm.375-.99c.38-.05.82-.17 1.32-.36.5-.2.775-.335.825-.405v-2.565c-.15.08-.5.17-1.05.27-.54.09-.86.145-.96.165-.78.13-1.355.335-1.725.615-.36.27-.54.62-.54 1.05 0 .43.13.755.39.975.27.21.64.315 1.11.315.12 0 .33-.02.63-.06zm5.309.855v-7.95h.975l.255 1.245.315-.33c.2-.2.47-.4.81-.6a3.631 3.631 0 011.755-.465c.92 0 1.655.25 2.205.75.3.27.525.6.675.99.16.38.24.8.24 1.26V26h-1.2v-4.815c0-.75-.215-1.32-.645-1.71-.37-.34-.9-.51-1.59-.51-.54 0-1.04.14-1.5.42-.24.15-.455.32-.645.51s-.34.375-.45.555V26h-1.2zm12.758.15a4.229 4.229 0 01-1.575-.33c-.5-.22-.935-.52-1.305-.9-.38-.38-.68-.825-.9-1.335a4.137 4.137 0 01-.315-1.59c0-.54.11-1.065.33-1.575.23-.52.54-.97.93-1.35.37-.36.8-.64 1.29-.84.49-.21 1.005-.32 1.545-.33.89 0 1.66.215 2.31.645V19.7c-.63-.47-1.3-.705-2.01-.705-.43 0-.84.075-1.23.225-.39.15-.735.37-1.035.66-.29.27-.52.59-.69.96-.16.36-.24.745-.24 1.155 0 .4.075.785.225 1.155.16.36.38.68.66.96.29.29.63.52 1.02.69.4.16.825.24 1.275.24.72 0 1.395-.235 2.025-.705v1.14c-.63.45-1.4.675-2.31.675zm7.977 0c-.85 0-1.615-.18-2.295-.54a4.26 4.26 0 01-1.605-1.485c-.38-.63-.57-1.32-.57-2.07 0-.77.18-1.47.54-2.1a4 4 0 011.5-1.5c.64-.37 1.35-.555 2.13-.555.78 0 1.47.18 2.07.54.6.36 1.065.845 1.395 1.455.34.6.51 1.25.51 1.95 0 .27-.005.455-.015.555h-6.9c.01.48.15.92.42 1.32.27.39.635.705 1.095.945.47.24.99.37 1.56.39.63.02 1.21-.035 1.74-.165.54-.13 1-.315 1.38-.555v1.08c-.85.49-1.835.735-2.955.735zm2.475-4.605c-.02-.46-.15-.89-.39-1.29-.23-.4-.555-.715-.975-.945-.42-.24-.9-.36-1.44-.36-.52 0-1 .12-1.44.36-.43.24-.775.56-1.035.96-.25.39-.39.815-.42 1.275h5.7zM157.178 26h-1.605l-1.56-1.53c-.52.54-1.03.95-1.53 1.23-.49.27-1.1.425-1.83.465-.68.03-1.27-.07-1.77-.3-.49-.23-.865-.545-1.125-.945-.25-.4-.375-.84-.375-1.32 0-.45.1-.855.3-1.215.2-.36.465-.685.795-.975.33-.3.77-.65 1.32-1.05a6.905 6.905 0 01-1.005-1.275c-.25-.42-.375-.86-.375-1.32 0-.74.235-1.33.705-1.77.48-.44 1.145-.66 1.995-.66.53 0 .985.105 1.365.315.39.21.685.485.885.825.2.34.3.705.3 1.095 0 .38-.085.72-.255 1.02-.16.29-.395.565-.705.825-.3.26-.725.585-1.275.975l2.535 2.475 1.26-1.395h1.455l-1.92 2.175L157.178 26zm-6.09-9.72c-.44 0-.8.14-1.08.42-.27.27-.405.615-.405 1.035 0 .33.095.65.285.96.19.3.47.635.84 1.005.5-.34.855-.59 1.065-.75.21-.17.38-.36.51-.57.13-.21.195-.455.195-.735 0-.33-.12-.635-.36-.915-.24-.29-.59-.44-1.05-.45zm-.495 8.805c.53 0 .995-.115 1.395-.345.4-.24.81-.585 1.23-1.035l-2.715-2.655c-.47.34-.825.615-1.065.825-.24.21-.435.44-.585.69-.14.24-.21.515-.21.825 0 .47.17.87.51 1.2.34.33.82.495 1.44.495zm13.596-3.75v3.495h6.09l-.33 1.17h-6.99V15.5h7.305v1.17h-6.075v3.525h5.52v1.14h-5.52zm10.942 4.83c-1.21 0-2.355-.33-3.435-.99v-1.26c.47.36 1.005.645 1.605.855.6.21 1.2.315 1.8.315.85 0 1.54-.14 2.07-.42.54-.29.81-.74.81-1.35 0-.37-.125-.68-.375-.93-.24-.26-.54-.47-.9-.63-.35-.16-.845-.35-1.485-.57a22.17 22.17 0 01-1.8-.705 3.599 3.599 0 01-1.155-.885c-.31-.37-.465-.835-.465-1.395 0-.59.16-1.1.48-1.53.32-.43.755-.76 1.305-.99.56-.23 1.19-.345 1.89-.345.62 0 1.185.07 1.695.21.52.14 1.015.34 1.485.6v1.23a5.728 5.728 0 00-1.425-.705 4.915 4.915 0 00-1.62-.255c-.71 0-1.32.135-1.83.405-.5.26-.75.675-.75 1.245 0 .35.12.65.36.9a3 3 0 00.885.6c.36.16.845.345 1.455.555.76.27 1.365.515 1.815.735.46.21.85.505 1.17.885.33.38.495.86.495 1.44 0 .94-.38 1.675-1.14 2.205-.75.52-1.73.78-2.94.78zm15.536-5.175c.03.98-.14 1.865-.51 2.655a4.127 4.127 0 01-1.665 1.845c-.74.45-1.65.675-2.73.675-.99 0-1.88-.235-2.67-.705a4.988 4.988 0 01-1.845-1.965c-.44-.83-.66-1.76-.66-2.79 0-.97.24-1.865.72-2.685a5.328 5.328 0 011.965-1.95 5.38 5.38 0 012.76-.735c.68 0 1.3.09 1.86.27.57.18 1.045.41 1.425.69V17.6c-.36-.33-.83-.6-1.41-.81-.57-.21-1.215-.305-1.935-.285-.77.01-1.475.205-2.115.585-.63.37-1.13.875-1.5 1.515a4.21 4.21 0 00-.54 2.1c0 .81.165 1.54.495 2.19.33.65.795 1.16 1.395 1.53.61.37 1.3.555 2.07.555 1.19 0 2.09-.34 2.7-1.02.62-.68.94-1.55.96-2.61h-3.3l.33-1.08h4.2v.72zm8.618 5.16c-.58 0-1.115-.065-1.605-.195a5.76 5.76 0 01-1.245-.51l.015-1.14c.29.2.69.385 1.2.555.51.16 1.035.24 1.575.24.66 0 1.19-.105 1.59-.315.2-.1.355-.235.465-.405.11-.17.165-.36.165-.57 0-.32-.135-.58-.405-.78-.18-.13-.385-.23-.615-.3-.23-.08-.6-.185-1.11-.315-.6-.16-1.07-.305-1.41-.435a2.45 2.45 0 01-.87-.555c-.36-.33-.54-.77-.54-1.32.01-.67.29-1.2.84-1.59.54-.39 1.295-.595 2.265-.615 1.06 0 1.94.175 2.64.525l-.015 1.14c-.28-.16-.64-.3-1.08-.42-.43-.12-.89-.18-1.38-.18-.64 0-1.155.115-1.545.345-.32.19-.485.445-.495.765 0 .26.105.48.315.66.16.16.37.29.63.39.26.09.645.2 1.155.33.53.14.95.265 1.26.375.31.11.575.25.795.42.53.36.795.88.795 1.56 0 .41-.1.775-.3 1.095-.2.31-.48.56-.84.75-.57.33-1.32.495-2.25.495zm8.731 0c-.75 0-1.445-.18-2.085-.54-.63-.37-1.13-.87-1.5-1.5a4.014 4.014 0 01-.555-2.07c0-.74.185-1.425.555-2.055a4.23 4.23 0 011.515-1.515c.63-.38 1.32-.57 2.07-.57.75 0 1.44.19 2.07.57a4 4 0 011.485 1.515c.37.63.555 1.315.555 2.055 0 .76-.185 1.455-.555 2.085-.37.62-.87 1.115-1.5 1.485-.62.36-1.305.54-2.055.54zm0-1.155c.53 0 1.015-.13 1.455-.39.45-.26.805-.615 1.065-1.065.27-.45.405-.955.405-1.515 0-.55-.135-1.05-.405-1.5-.26-.46-.615-.82-1.065-1.08-.44-.26-.925-.39-1.455-.39-.51 0-.995.13-1.455.39-.45.26-.81.62-1.08 1.08-.27.45-.405.95-.405 1.5 0 .56.135 1.07.405 1.53.27.45.63.805 1.08 1.065.45.25.935.375 1.455.375zM214.797 26h-1.2V15.245h1.2V26zm5.549.15c-.67 0-1.28-.145-1.83-.435-.55-.3-.985-.71-1.305-1.23a3.47 3.47 0 01-.465-1.785v-4.65h1.2v4.74c0 .68.225 1.23.675 1.65.45.41 1.025.615 1.725.615.69 0 1.26-.205 1.71-.615.45-.42.675-.965.675-1.635V18.05h1.2v4.665a3.358 3.358 0 01-1.77 3c-.55.29-1.155.435-1.815.435zm8.331-.045c-.23-.03-.45-.1-.66-.21-.42-.22-.71-.555-.87-1.005-.09-.26-.135-.6-.135-1.02v-4.755h-1.515V18.05h1.515V15.5h1.2v2.55h2.325l-.33 1.065h-1.995v4.455c0 .42.03.71.09.87.1.22.25.38.45.48.2.09.41.135.63.135.21 0 .47-.035.78-.105.31-.07.555-.145.735-.225v1.14a4.81 4.81 0 01-1.635.285c-.21 0-.405-.015-.585-.045zm4.243-9.345a.805.805 0 01-.57-.225.805.805 0 01-.225-.57c0-.22.075-.405.225-.555.16-.15.35-.225.57-.225.21 0 .395.08.555.24.16.15.24.33.24.54 0 .22-.08.41-.24.57a.787.787 0 01-.555.225zm.615 9.24h-1.2v-7.95h1.2V26zm5.785.15c-.75 0-1.445-.18-2.085-.54-.63-.37-1.13-.87-1.5-1.5a4.014 4.014 0 01-.555-2.07c0-.74.185-1.425.555-2.055a4.23 4.23 0 011.515-1.515c.63-.38 1.32-.57 2.07-.57.75 0 1.44.19 2.07.57a4 4 0 011.485 1.515c.37.63.555 1.315.555 2.055 0 .76-.185 1.455-.555 2.085-.37.62-.87 1.115-1.5 1.485-.62.36-1.305.54-2.055.54zm0-1.155c.53 0 1.015-.13 1.455-.39.45-.26.805-.615 1.065-1.065.27-.45.405-.955.405-1.515 0-.55-.135-1.05-.405-1.5-.26-.46-.615-.82-1.065-1.08-.44-.26-.925-.39-1.455-.39-.51 0-.995.13-1.455.39-.45.26-.81.62-1.08 1.08-.27.45-.405.95-.405 1.5 0 .56.135 1.07.405 1.53.27.45.63.805 1.08 1.065.45.25.935.375 1.455.375zM244.96 26v-7.95h.975l.255 1.245.315-.33c.2-.2.47-.4.81-.6a3.631 3.631 0 011.755-.465c.92 0 1.655.25 2.205.75.3.27.525.6.675.99.16.38.24.8.24 1.26V26h-1.2v-4.815c0-.75-.215-1.32-.645-1.71-.37-.34-.9-.51-1.59-.51-.54 0-1.04.14-1.5.42-.24.15-.455.32-.645.51s-.34.375-.45.555V26h-1.2zm11.483.15c-.58 0-1.115-.065-1.605-.195a5.76 5.76 0 01-1.245-.51l.015-1.14c.29.2.69.385 1.2.555.51.16 1.035.24 1.575.24.66 0 1.19-.105 1.59-.315.2-.1.355-.235.465-.405.11-.17.165-.36.165-.57 0-.32-.135-.58-.405-.78-.18-.13-.385-.23-.615-.3-.23-.08-.6-.185-1.11-.315-.6-.16-1.07-.305-1.41-.435a2.45 2.45 0 01-.87-.555c-.36-.33-.54-.77-.54-1.32.01-.67.29-1.2.84-1.59.54-.39 1.295-.595 2.265-.615 1.06 0 1.94.175 2.64.525l-.015 1.14c-.28-.16-.64-.3-1.08-.42-.43-.12-.89-.18-1.38-.18-.64 0-1.155.115-1.545.345-.32.19-.485.445-.495.765 0 .26.105.48.315.66.16.16.37.29.63.39.26.09.645.2 1.155.33.53.14.95.265 1.26.375.31.11.575.25.795.42.53.36.795.88.795 1.56 0 .41-.1.775-.3 1.095-.2.31-.48.56-.84.75-.57.33-1.32.495-2.25.495z" fill="#FA9C1E"/></svg>