<svg width="115" height="28" viewBox="0 0 115 28" fill="none" xmlns="http://www.w3.org/2000/svg"><rect width="115" height="28" rx="3.111" fill="#FF9D34"/><path d="M22.546 18.5h-5.65V9.789h1.792v7.019h4.28l-.422 1.692zm3.53-1.692h4.58l-.423 1.692h-5.949v-7.467c0-.174-.025-.377-.074-.61a5.328 5.328 0 00-.175-.634h6.46v1.692h-4.419v1.855h3.958v1.642h-3.958v1.83zm13.49 1.692H37.65l-.66-1.692h-3.086l-.66 1.692h-1.928l3.186-8.151a5.141 5.141 0 00-.237-.56h1.929l3.372 8.711zm-4.119-6.347l-1.107 3.024h2.202l-1.095-3.024zM48.061 18.5h-2.14l-2.64-3.845c.773-.307 1.32-.535 1.644-.685.323-.157.568-.332.734-.522.174-.191.261-.436.261-.735 0-.381-.124-.672-.373-.87-.24-.208-.602-.312-1.083-.312H42.61V18.5h-1.792v-7.467c0-.174-.025-.377-.075-.61a5.328 5.328 0 00-.174-.634h3.945c.622 0 1.174.12 1.655.36.49.233.867.57 1.133 1.009.273.431.41.941.41 1.53 0 .415-.066.772-.199 1.07a2.32 2.32 0 01-.622.797c-.282.24-.672.494-1.17.76l2.34 3.185zm7.014-8.711h1.792V18.5h-1.32l-4.703-5.588V18.5h-1.792v-7.467c0-.174-.025-.377-.075-.61a5.366 5.366 0 00-.174-.634h1.568l4.704 5.587V9.79zm14.813 0h1.344V18.5H69.44v-4.965l-2.19 3.248h-.933l-2.19-3.248V18.5h-1.792v-7.467c0-.174-.025-.377-.075-.61a5.366 5.366 0 00-.174-.634h1.568l3.123 4.729 3.111-4.73zm7.261 8.86c-.83 0-1.593-.199-2.29-.597a4.584 4.584 0 01-1.642-1.643 4.512 4.512 0 01-.597-2.277c0-.813.199-1.564.597-2.252a4.487 4.487 0 011.643-1.63 4.463 4.463 0 012.29-.61 4.33 4.33 0 012.24.61 4.459 4.459 0 011.654 1.63c.407.688.61 1.439.61 2.252 0 .821-.203 1.576-.61 2.265a4.585 4.585 0 01-1.642 1.643c-.689.406-1.44.61-2.253.61zm0-1.692c.506 0 .967-.125 1.382-.373.414-.258.738-.602.97-1.033.241-.432.361-.905.361-1.419s-.12-.983-.36-1.406a2.633 2.633 0 00-2.352-1.394c-.515 0-.984.124-1.407.373-.415.25-.742.59-.983 1.02a2.873 2.873 0 00-.348 1.407c0 .514.116.987.348 1.419.24.431.568.775.983 1.033.423.248.892.373 1.406.373zM90.522 18.5h-2.14l-2.638-3.845c.771-.307 1.319-.535 1.642-.685.324-.157.569-.332.735-.522.174-.191.26-.436.26-.735 0-.381-.124-.672-.372-.87-.241-.208-.602-.312-1.083-.312h-1.854V18.5H83.28v-7.467c0-.174-.025-.377-.075-.61a5.346 5.346 0 00-.174-.634h3.945c.622 0 1.174.12 1.655.36.49.233.867.57 1.132 1.009.274.431.41.941.41 1.53 0 .415-.065.772-.198 1.07a2.32 2.32 0 01-.622.797c-.282.24-.672.494-1.17.76l2.34 3.185zm2.783-1.692h4.58l-.423 1.692h-5.949v-7.467c0-.174-.024-.377-.074-.61a5.366 5.366 0 00-.174-.634h6.458v1.692h-4.418v1.855h3.958v1.642h-3.958v1.83z" fill="#000"/></svg>