<svg width="355" height="45" viewBox="0 0 355 45" fill="none" xmlns="http://www.w3.org/2000/svg"><path d="M11.95 2.857h4.017L9.87 14.05V20H6.343v-6.024L.269 2.857H4.31l3.82 7.396 3.82-7.396zm12.772 17.437c-1.633 0-3.135-.392-4.506-1.176a9.021 9.021 0 01-3.233-3.232 8.879 8.879 0 01-1.175-4.482 8.7 8.7 0 011.175-4.432 8.828 8.828 0 013.233-3.208c1.371-.8 2.873-1.2 4.506-1.2 1.583 0 3.053.4 4.408 1.2a8.773 8.773 0 013.257 3.208 8.563 8.563 0 011.2 4.432c0 1.617-.4 3.102-1.2 4.457a9.021 9.021 0 01-3.233 3.233 8.563 8.563 0 01-4.432 1.2zm0-3.33c.996 0 1.902-.246 2.718-.735a5.316 5.316 0 001.91-2.033c.474-.849.71-1.78.71-2.792 0-1.012-.236-1.934-.71-2.767a5.182 5.182 0 00-4.628-2.743 5.357 5.357 0 00-2.767.735 5.318 5.318 0 00-1.935 2.008c-.457.833-.686 1.755-.686 2.767s.229 1.943.686 2.792a5.506 5.506 0 001.935 2.033c.832.49 1.755.734 2.767.734zm18.896 3.33a7.555 7.555 0 01-3.624-.906 7.148 7.148 0 01-2.694-2.572c-.67-1.093-1.004-2.334-1.004-3.722V2.857h3.526v10.286c0 .784.18 1.461.54 2.033.375.555.848.98 1.42 1.273.587.294 1.192.44 1.812.44h.049c.604 0 1.192-.138 1.763-.415a3.67 3.67 0 001.396-1.25c.36-.555.539-1.208.539-1.959V2.857h3.526v10.237c0 1.388-.334 2.629-1.004 3.722a7.016 7.016 0 01-2.645 2.572 7.366 7.366 0 01-3.575.906h-.025zM69.047 20h-4.212l-5.192-7.567c1.518-.604 2.596-1.053 3.233-1.347.636-.31 1.118-.653 1.444-1.029.343-.375.515-.857.515-1.445 0-.75-.245-1.322-.735-1.714-.473-.408-1.183-.612-2.13-.612h-3.65V20h-3.526V5.306c0-.343-.049-.742-.147-1.2a10.515 10.515 0 00-.343-1.249h7.764c1.224 0 2.31.237 3.257.71.963.458 1.706 1.119 2.228 1.984.539.85.808 1.853.808 3.012 0 .817-.13 1.519-.392 2.106-.26.572-.669 1.094-1.224 1.568-.555.473-1.323.971-2.302 1.494L69.047 20zm17.619.294a8.879 8.879 0 01-4.482-1.176 8.962 8.962 0 01-3.257-3.232c-.8-1.355-1.2-2.85-1.2-4.482 0-1.616.4-3.094 1.2-4.432a8.773 8.773 0 013.257-3.208 8.738 8.738 0 014.482-1.2c.767 0 1.47.09 2.106.269.653.18 1.314.473 1.983.882v3.55a5.477 5.477 0 00-1.714-.98 5.742 5.742 0 00-2.106-.39c-1.061 0-2.024.244-2.89.734a5.336 5.336 0 00-2.057 1.983c-.49.833-.734 1.764-.734 2.792 0 .996.228 1.927.685 2.792a5.506 5.506 0 001.935 2.033c.816.49 1.722.734 2.718.734a7.72 7.72 0 002.351-.343c.719-.244 1.323-.58 1.813-1.004v3.576c-.54.359-1.176.628-1.91.808a8.248 8.248 0 01-2.18.294zm14.992 0c-1.633 0-3.135-.392-4.506-1.176a9.022 9.022 0 01-3.233-3.232 8.879 8.879 0 01-1.175-4.482 8.7 8.7 0 011.175-4.432 8.83 8.83 0 013.233-3.208c1.371-.8 2.873-1.2 4.506-1.2 1.584 0 3.053.4 4.408 1.2a8.776 8.776 0 013.257 3.208 8.563 8.563 0 011.2 4.432c0 1.617-.4 3.102-1.2 4.457a9.015 9.015 0 01-3.233 3.233 8.56 8.56 0 01-4.432 1.2zm0-3.33a5.18 5.18 0 002.718-.735 5.31 5.31 0 001.91-2.033 5.63 5.63 0 00.711-2.792c0-1.012-.237-1.934-.711-2.767a5.18 5.18 0 00-4.628-2.743 5.358 5.358 0 00-2.767.735 5.318 5.318 0 00-1.935 2.008c-.457.833-.686 1.755-.686 2.767s.229 1.943.686 2.792a5.506 5.506 0 001.935 2.033c.832.49 1.755.734 2.767.734zm19.9-3.11h-8.448v-3.135h8.448v3.134zm10.497-10.997c1.208 0 2.277.237 3.208.71a4.912 4.912 0 012.18 2.009c.522.865.783 1.877.783 3.036v.123c0 1.47-.49 2.71-1.469 3.722-.98.996-2.433 1.665-4.359 2.008l-4.017.809V20h-3.526V5.306c0-.343-.049-.742-.147-1.2a10.457 10.457 0 00-.343-1.249h7.69zm-.098 8.4c1.828-.277 2.743-1.143 2.743-2.596 0-.8-.237-1.412-.711-1.836-.457-.425-1.142-.637-2.057-.637h-3.551v5.73l3.576-.66zM144.453 20h-3.527V2.857h3.527V20zm14.6 0h-11.118V2.857h3.526V16.67h8.424L159.053 20zm11.147.294c-1.633 0-3.135-.392-4.506-1.176a9.015 9.015 0 01-3.233-3.232 8.875 8.875 0 01-1.176-4.482c0-1.6.392-3.077 1.176-4.432a8.823 8.823 0 013.233-3.208c1.371-.8 2.873-1.2 4.506-1.2 1.583 0 3.053.4 4.408 1.2a8.776 8.776 0 013.257 3.208 8.563 8.563 0 011.2 4.432c0 1.617-.4 3.102-1.2 4.457a9.023 9.023 0 01-3.233 3.233 8.56 8.56 0 01-4.432 1.2zm0-3.33c.995 0 1.902-.246 2.718-.735a5.317 5.317 0 001.91-2.033 5.63 5.63 0 00.71-2.792c0-1.012-.236-1.934-.71-2.767a5.183 5.183 0 00-4.628-2.743 5.358 5.358 0 00-2.768.735 5.314 5.314 0 00-1.934 2.008c-.458.833-.686 1.755-.686 2.767s.228 1.943.686 2.792a5.503 5.503 0 001.934 2.033c.833.49 1.755.734 2.768.734zm10.6-14.107h14.032v3.331h-5.265V20h-3.526V6.188H180.8v-3.33z" fill="#fff"/><path d="M.98 26.857h14.032v3.331H9.747V44H6.22V30.188H.98v-3.33zm24.698 17.437c-1.632 0-3.134-.392-4.506-1.176a9.022 9.022 0 01-3.232-3.232 8.879 8.879 0 01-1.176-4.482 8.7 8.7 0 011.176-4.432 8.83 8.83 0 013.232-3.209c1.372-.8 2.874-1.2 4.506-1.2 1.584 0 3.053.4 4.409 1.2a8.773 8.773 0 013.257 3.209 8.563 8.563 0 011.2 4.432c0 1.616-.4 3.102-1.2 4.457a9.021 9.021 0 01-3.233 3.233 8.563 8.563 0 01-4.433 1.2zm0-3.33c.996 0 1.902-.246 2.719-.735a5.316 5.316 0 001.91-2.033c.474-.849.71-1.78.71-2.792 0-1.012-.236-1.935-.71-2.767a5.182 5.182 0 00-4.628-2.743 5.357 5.357 0 00-2.768.735 5.317 5.317 0 00-1.934 2.008c-.458.832-.686 1.755-.686 2.767s.228 1.943.686 2.792a5.506 5.506 0 001.934 2.033c.833.49 1.755.734 2.767.734zm34.737-4.678c.016 1.633-.294 3.053-.93 4.261a6.468 6.468 0 01-2.744 2.792c-1.208.636-2.644.955-4.31.955-1.6 0-3.045-.392-4.334-1.176-1.274-.8-2.278-1.885-3.013-3.257-.734-1.387-1.102-2.914-1.102-4.58 0-1.534.376-2.962 1.127-4.285a8.815 8.815 0 013.135-3.208c1.322-.8 2.783-1.208 4.383-1.224 1.176-.017 2.245.13 3.208.44.98.294 1.772.67 2.376 1.127v3.649c-.539-.555-1.29-1.02-2.253-1.396-.947-.392-2.033-.555-3.257-.49a5.522 5.522 0 00-2.645.808 5.168 5.168 0 00-1.861 1.935 5.39 5.39 0 00-.662 2.645c0 1.061.213 2.024.637 2.89a5.208 5.208 0 001.763 2.032c.751.49 1.6.735 2.547.735 1.355 0 2.4-.335 3.135-1.004.735-.686 1.167-1.625 1.298-2.817h-4.09l.833-3.036h6.759v2.204zM77.967 44h-4.212l-5.191-7.567c1.518-.604 2.595-1.053 3.232-1.347.637-.31 1.118-.653 1.445-1.029.343-.375.514-.857.514-1.445 0-.75-.245-1.322-.734-1.714-.474-.408-1.184-.612-2.131-.612h-3.649V44h-3.526V29.306a5.83 5.83 0 00-.147-1.2 10.53 10.53 0 00-.343-1.249h7.763c1.224 0 2.31.237 3.257.71.963.458 1.706 1.119 2.229 1.984.538.85.808 1.853.808 3.012 0 .817-.13 1.519-.392 2.106-.261.572-.67 1.094-1.225 1.568-.555.473-1.322.971-2.302 1.494L77.967 44zm10.155.294c-1.633 0-3.135-.392-4.506-1.176a9.021 9.021 0 01-3.233-3.232 8.878 8.878 0 01-1.175-4.482 8.7 8.7 0 011.175-4.432 8.829 8.829 0 013.233-3.209c1.371-.8 2.873-1.2 4.506-1.2 1.583 0 3.053.4 4.408 1.2a8.772 8.772 0 013.257 3.209 8.563 8.563 0 011.2 4.432c0 1.616-.4 3.102-1.2 4.457a9.02 9.02 0 01-3.233 3.233 8.563 8.563 0 01-4.432 1.2zm0-3.33c.996 0 1.902-.246 2.718-.735a5.316 5.316 0 001.91-2.033c.474-.849.71-1.78.71-2.792 0-1.012-.236-1.935-.71-2.767a5.182 5.182 0 00-4.629-2.743 5.357 5.357 0 00-2.767.735 5.316 5.316 0 00-1.934 2.008c-.457.832-.686 1.755-.686 2.767s.229 1.943.686 2.792a5.505 5.505 0 001.934 2.033c.833.49 1.755.734 2.768.734zm27.063-3.821l3.624-10.286h3.796L116.238 44h-2.033l-3.918-10.8-3.919 10.8h-2.008l-6.391-17.143h3.82l3.575 10.384 3.331-9.184-.367-1.2h3.085l3.772 10.286zm8.864-10.286h14.032v3.331h-5.265V44h-3.527V30.188h-5.24v-3.33zm26.289 6.833v-6.833h3.527V44h-3.527v-6.98h-7.444V44h-3.527V26.857h3.527v6.833h7.444zM167.961 44h-3.526V26.857h3.526V44zm15.286-17.143h3.527V44h-2.596l-9.257-10.996V44h-3.527V29.306c0-.343-.049-.742-.147-1.2a10.46 10.46 0 00-.342-1.249h3.085l9.257 10.996V26.857zM212.326 44h-3.772l-1.298-3.33h-6.073L199.885 44h-3.796l6.269-16.04c-.065-.213-.22-.58-.465-1.103h3.796L212.326 44zm-8.106-12.49l-2.18 5.951h4.335l-2.155-5.95zm22.25-1.322h-8.645v3.6h7.69l-.833 3.233h-6.857V44h-3.526V29.306c0-.343-.049-.742-.147-1.2a10.454 10.454 0 00-.343-1.249h12.661v3.331zM243.702 44h-4.213l-5.191-7.567c1.518-.604 2.595-1.053 3.232-1.347.637-.31 1.119-.653 1.445-1.029.343-.375.514-.857.514-1.445 0-.75-.245-1.322-.734-1.714-.474-.408-1.184-.612-2.131-.612h-3.649V44h-3.526V29.306c0-.343-.049-.742-.147-1.2a10.454 10.454 0 00-.343-1.249h7.763c1.225 0 2.31.237 3.257.71.963.458 1.706 1.119 2.229 1.984.538.85.808 1.853.808 3.012 0 .817-.131 1.519-.392 2.106-.261.572-.669 1.094-1.224 1.568-.556.473-1.323.971-2.302 1.494L243.702 44zm5.476 0h-3.526V26.857h3.526V44zm11.76.294a8.88 8.88 0 01-4.482-1.176 8.965 8.965 0 01-3.257-3.232c-.8-1.355-1.2-2.85-1.2-4.482 0-1.616.4-3.094 1.2-4.432a8.776 8.776 0 013.257-3.209 8.739 8.739 0 014.482-1.2c.767 0 1.469.09 2.106.27.653.18 1.314.473 1.983.882v3.55a5.462 5.462 0 00-1.714-.98 5.74 5.74 0 00-2.106-.39c-1.061 0-2.024.244-2.89.734a5.336 5.336 0 00-2.057 1.983c-.49.833-.734 1.764-.734 2.792 0 .996.228 1.927.685 2.792a5.513 5.513 0 001.935 2.033 5.18 5.18 0 002.718.734c.849 0 1.633-.114 2.351-.343.719-.244 1.323-.58 1.812-1.004v3.576c-.538.359-1.175.628-1.91.808a8.247 8.247 0 01-2.179.294zM282.876 44h-3.771l-1.298-3.33h-6.073L270.436 44h-3.796l6.269-16.04c-.065-.213-.22-.58-.465-1.103h3.796L282.876 44zm-8.106-12.49l-2.179 5.951h4.334l-2.155-5.95z" fill="#FA9D1E"/></svg>