<svg width="294" height="9" viewBox="0 0 294 9" fill="none" xmlns="http://www.w3.org/2000/svg"><path d="M4.59 6.83H2.43L1.99 8H.1l2.71-7h1.43l2.68 7H5.04l-.45-1.17zm-1.73-1.6h1.3l-.64-1.92-.66 1.92zm9.57 1.12h3.25L15.28 8h-4.6V1h1.75v5.35zm8.927-2.64v1.6h-2.93v1.04h3.49l-.4 1.65h-4.84V1h5.05v1.65h-3.3v1.06h2.93zm5.547 3.12h-2.16L24.304 8h-1.89l2.71-7h1.43l2.68 7h-1.88l-.45-1.17zm-1.73-1.6h1.3l-.64-1.92-.66 1.92zM32.837 8h-2.8V1h2.8c.607 0 1.16.153 1.66.46.5.307.893.727 1.18 1.26a3.63 3.63 0 01.44 1.78v.02a3.59 3.59 0 01-.44 1.76c-.287.533-.68.953-1.18 1.26-.5.307-1.053.46-1.66.46zm-1.05-1.65h.96c.393 0 .71-.1.95-.3.247-.207.42-.45.52-.73.1-.28.15-.547.15-.8V4.5c0-.267-.05-.54-.15-.82-.1-.287-.273-.53-.52-.73-.24-.2-.557-.3-.95-.3h-.96v3.7zM37.263 1h1.75v7h-1.75V1zm8.354 7l-3.45-3.95V8h-1.75V1h1.28l3.45 3.96V1h1.75v7h-1.28zm6-2.67l.4-1.5h2.74v1.11c0 .673-.133 1.25-.4 1.73-.26.473-.636.833-1.13 1.08-.486.247-1.063.37-1.73.37a3.272 3.272 0 01-1.76-.49 3.435 3.435 0 01-1.24-1.34c-.3-.567-.45-1.19-.45-1.87 0-.633.16-1.22.48-1.76.32-.547.754-.98 1.3-1.3a3.515 3.515 0 011.82-.49c.467 0 .894.063 1.28.19.387.12.697.27.93.45v1.8c-.213-.227-.516-.42-.91-.58-.393-.167-.846-.233-1.36-.2a1.88 1.88 0 00-1.55.97c-.153.28-.23.59-.23.93 0 .38.074.727.22 1.04.154.307.36.55.62.73.26.173.55.26.87.26.86 0 1.354-.377 1.48-1.13h-1.38zm11.176 1.5h-2.16L60.193 8h-1.89l2.71-7h1.43l2.68 7h-1.88l-.45-1.17zm-1.73-1.6h1.3l-.64-1.92-.66 1.92zM65.925 8V1h5.05v1.65h-3.3v1.06h2.93l-.4 1.6h-2.53V8h-1.75zm7.804 0h-1.75V1h3.08c.5 0 .947.1 1.34.3.394.2.7.483.92.85.227.36.34.777.34 1.25 0 .32-.043.597-.13.83a1.82 1.82 0 01-.45.65c-.206.2-.503.417-.89.65L78 8h-2.09l-2.08-3.1c.66-.28 1.114-.48 1.36-.6.247-.127.427-.253.54-.38a.72.72 0 00.18-.5c0-.273-.083-.46-.25-.56-.166-.107-.386-.16-.66-.16h-1.27V8zm5.067-7h1.75v7h-1.75V1zm6.564 7.12c-.66 0-1.27-.16-1.83-.48a3.739 3.739 0 01-1.34-1.32 3.533 3.533 0 01-.49-1.83c0-.66.163-1.267.49-1.82a3.66 3.66 0 011.34-1.31c.56-.327 1.17-.49 1.83-.49.313 0 .6.037.86.11.26.067.523.19.79.37V3.1a2.004 2.004 0 00-.67-.41 2.223 2.223 0 00-.86-.17c-.38 0-.727.087-1.04.26-.307.173-.55.41-.73.71-.173.3-.26.633-.26 1 0 .353.08.683.24.99.167.3.393.54.68.72.287.18.603.27.95.27.36 0 .683-.047.97-.14.293-.1.533-.243.72-.43v1.77a2.209 2.209 0 01-.75.33c-.293.08-.593.12-.9.12zm6.74-1.29h-2.16L89.5 8h-1.89l2.71-7h1.43l2.68 7h-1.88l-.45-1.17zm-1.73-1.6h1.3l-.64-1.92-.66 1.92zM100.43 8l-3.45-3.95V8h-1.75V1h1.28l3.45 3.96V1h1.75v7h-1.28zm9.089.12c-.66 0-1.27-.16-1.83-.48a3.737 3.737 0 01-1.34-1.32 3.53 3.53 0 01-.49-1.83c0-.66.163-1.267.49-1.82.333-.553.78-.99 1.34-1.31.56-.327 1.17-.49 1.83-.49.313 0 .6.037.86.11.26.067.523.19.79.37V3.1a2.004 2.004 0 00-.67-.41 2.222 2.222 0 00-.86-.17c-.38 0-.727.087-1.04.26a1.96 1.96 0 00-.73.71c-.173.3-.26.633-.26 1 0 .353.08.683.24.99.167.3.393.54.68.72.287.18.603.27.95.27.36 0 .683-.047.97-.14.293-.1.533-.243.72-.43v1.77a2.214 2.214 0 01-.75.33c-.293.08-.593.12-.9.12zm6.092 0c-.666 0-1.28-.16-1.84-.48a3.69 3.69 0 01-1.32-1.32c-.32-.56-.48-1.17-.48-1.83 0-.653.16-1.257.48-1.81a3.69 3.69 0 011.32-1.32 3.588 3.588 0 011.84-.49c.647 0 1.247.163 1.8.49.56.327 1.004.767 1.33 1.32.334.553.5 1.157.5 1.81 0 .66-.166 1.267-.5 1.82a3.673 3.673 0 01-1.32 1.32 3.494 3.494 0 01-1.81.49zm0-1.65c.354 0 .674-.087.96-.26.287-.18.51-.42.67-.72.167-.307.25-.64.25-1a2 2 0 00-.25-.99c-.16-.3-.383-.537-.67-.71a1.765 1.765 0 00-.96-.27c-.36 0-.686.09-.98.27-.286.173-.51.41-.67.71-.16.3-.24.63-.24.99s.08.693.24 1c.16.3.384.54.67.72.294.173.62.26.98.26zM122.089 8h-1.75V1h3.08c.5 0 .946.1 1.34.3.393.2.7.483.92.85.226.36.34.777.34 1.25a2.4 2.4 0 01-.13.83 1.829 1.829 0 01-.45.65c-.207.2-.504.417-.89.65l1.81 2.47h-2.09l-2.08-3.1c.66-.28 1.113-.48 1.36-.6.246-.127.426-.253.54-.38a.72.72 0 00.18-.5c0-.273-.084-.46-.25-.56-.167-.107-.387-.16-.66-.16h-1.27V8zm5.066-7h2.98c.5 0 .947.1 1.34.3.393.2.7.483.92.85.227.36.34.777.34 1.25v.05c0 .633-.203 1.157-.61 1.57-.4.413-1.007.69-1.82.83l-1.4.28V8h-1.75V1zm1.75 3.47l1.18-.21c.273-.04.477-.107.61-.2.133-.093.213-.19.24-.29.033-.1.05-.217.05-.35 0-.293-.083-.493-.25-.6-.16-.113-.38-.17-.66-.17h-1.17v1.82zm8.27 3.65c-.667 0-1.28-.16-1.84-.48a3.673 3.673 0 01-1.32-1.32c-.32-.56-.48-1.17-.48-1.83 0-.653.16-1.257.48-1.81a3.673 3.673 0 011.32-1.32 3.586 3.586 0 011.84-.49c.646 0 1.246.163 1.8.49.56.327 1.003.767 1.33 1.32.333.553.5 1.157.5 1.81 0 .66-.167 1.267-.5 1.82a3.69 3.69 0 01-1.32 1.32 3.5 3.5 0 01-1.81.49zm0-1.65c.353 0 .673-.087.96-.26.286-.18.51-.42.67-.72.166-.307.25-.64.25-1s-.084-.69-.25-.99c-.16-.3-.384-.537-.67-.71a1.77 1.77 0 00-.96-.27c-.36 0-.687.09-.98.27-.287.173-.51.41-.67.71-.16.3-.24.63-.24.99s.08.693.24 1c.16.3.383.54.67.72.293.173.62.26.98.26zM143.651 8h-1.75V1h3.08c.5 0 .947.1 1.34.3.394.2.7.483.92.85.227.36.34.777.34 1.25 0 .32-.043.597-.13.83a1.803 1.803 0 01-.45.65c-.206.2-.503.417-.89.65l1.81 2.47h-2.09l-2.08-3.1c.66-.28 1.114-.48 1.36-.6.247-.127.427-.253.54-.38a.72.72 0 00.18-.5c0-.273-.083-.46-.25-.56-.166-.107-.386-.16-.66-.16h-1.27V8zm8.957-1.17h-2.16l-.44 1.17h-1.89l2.71-7h1.43l2.68 7h-1.88l-.45-1.17zm-1.73-1.6h1.3l-.64-1.92-.66 1.92zm5.721-2.58h-2.01V1h5.77v1.65h-2.01V8h-1.75V2.65zm9.543 1.06v1.6h-2.93v1.04h3.49l-.4 1.65h-4.84V1h5.05v1.65h-3.3v1.06h2.93zm8.546 3.12h-2.16l-.44 1.17h-1.89l2.71-7h1.43l2.68 7h-1.88l-.45-1.17zm-1.73-1.6h1.3l-.64-1.92-.66 1.92zM183.019 8l-3.45-3.95V8h-1.75V1h1.28l3.45 3.96V1h1.75v7h-1.28zm5.481 0h-2.8V1h2.8c.607 0 1.16.153 1.66.46.5.307.893.727 1.18 1.26.293.533.44 1.127.44 1.78v.02c0 .64-.147 1.227-.44 1.76-.287.533-.68.953-1.18 1.26-.5.307-1.053.46-1.66.46zm-1.05-1.65h.96c.393 0 .71-.1.95-.3.247-.207.42-.45.52-.73.1-.28.15-.547.15-.8V4.5c0-.267-.05-.54-.15-.82-.1-.287-.273-.53-.52-.73-.24-.2-.557-.3-.95-.3h-.96v3.7zM195.925 1h1.75v7h-1.75V1zm8.354 7l-3.45-3.95V8h-1.75V1h1.28l3.45 3.96V1h1.75v7h-1.28zm7.241-7h1.89l-2.78 7h-1.36l-2.81-7h1.89l1.6 4.27L211.52 1zm7.473 2.71v1.6h-2.93v1.04h3.49l-.4 1.65h-4.84V1h5.05v1.65h-3.3v1.06h2.93zm3.758 4.41c-.893 0-1.656-.167-2.29-.5V5.89c.287.227.627.407 1.02.54.4.133.78.2 1.14.2.354 0 .64-.043.86-.13.227-.087.34-.233.34-.44 0-.16-.093-.293-.28-.4-.18-.113-.47-.247-.87-.4-.453-.173-.83-.337-1.13-.49-.293-.16-.55-.38-.77-.66-.213-.28-.32-.63-.32-1.05 0-.393.094-.753.28-1.08.187-.333.477-.6.87-.8.4-.207.897-.31 1.49-.31.834 0 1.537.17 2.11.51v1.7c-.28-.227-.593-.4-.94-.52-.34-.127-.68-.19-1.02-.19-.293 0-.543.047-.75.14-.2.087-.3.217-.3.39 0 .167.09.303.27.41.18.107.474.237.88.39.46.18.837.35 1.13.51.3.153.557.373.77.66.22.287.33.643.33 1.07 0 .413-.113.787-.34 1.12-.22.327-.543.587-.97.78-.426.187-.93.28-1.51.28zm5.733-5.47h-2.01V1h5.77v1.65h-2.01V8h-1.75V2.65zm8.042 4.14l-1.43-2.11V8h-1.75V1h1.28l2.35 3.58 2.33-3.58h1.3v7h-1.75V4.68l-1.43 2.11h-.9zm10.163-3.08v1.6h-2.93v1.04h3.49l-.4 1.65h-4.84V1h5.05v1.65h-3.3v1.06h2.93zM253.546 8l-3.45-3.95V8h-1.75V1h1.28l3.45 3.96V1h1.75v7h-1.28zm4.391-5.35h-2.01V1h5.77v1.65h-2.01V8h-1.75V2.65zM269.138 8h-3.34V1h3c.433 0 .806.08 1.12.24.313.16.55.377.71.65.166.273.25.58.25.92v.03c0 .307-.057.583-.17.83-.107.247-.3.46-.58.64.413.12.713.34.9.66.186.32.28.66.28 1.02v.05c0 .387-.094.73-.28 1.03a1.922 1.922 0 01-.78.69c-.327.16-.697.24-1.11.24zm-1.59-4.27h1.04a.52.52 0 00.38-.16.527.527 0 00.17-.38c0-.16-.054-.29-.16-.39-.1-.1-.22-.15-.36-.15h-1.07v1.08zm0 2.62h1.39a.57.57 0 00.44-.2.622.622 0 00.18-.42V5.7a.528.528 0 00-.17-.4.61.61 0 00-.45-.17h-1.39v1.22zm8.556.48h-2.16l-.44 1.17h-1.89l2.71-7h1.43l2.68 7h-1.88l-.45-1.17zm-1.73-1.6h1.3l-.64-1.92-.66 1.92zM284.435 8l-3.45-3.95V8h-1.75V1h1.28l3.45 3.96V1h1.75v7h-1.28zm4.431-7v3.49l2.22-3.49h2.13l-2.31 3.52 2.31 3.48h-2.13l-2.22-3.45v3.46h-1.75V1h1.75z" fill="#fff"/></svg>